<svg width="48" height="48" viewBox="0 0 48 48" fill="none" xmlns="http://www.w3.org/2000/svg">
<rect width="48" height="48" rx="8" fill="#2864F6"/>
<path d="M16.152 35V13.1818H24.5043C26.081 13.1818 27.3913 13.4304 28.4354 13.9276C29.4865 14.4176 30.2713 15.0888 30.7898 15.9411C31.3153 16.7933 31.5781 17.7592 31.5781 18.8388C31.5781 19.7266 31.4077 20.4865 31.0668 21.1186C30.7259 21.7436 30.2678 22.2514 29.6925 22.642C29.1172 23.0327 28.4744 23.3132 27.7642 23.4837V23.6967C28.5384 23.7393 29.2805 23.9773 29.9908 24.4105C30.7081 24.8366 31.294 25.4403 31.7486 26.2216C32.2031 27.0028 32.4304 27.9474 32.4304 29.0554C32.4304 30.1847 32.157 31.2003 31.6101 32.1023C31.0632 32.9972 30.2393 33.7038 29.1385 34.2223C28.0376 34.7408 26.6527 35 24.9837 35H16.152ZM20.1044 31.6974H24.3551C25.7898 31.6974 26.8232 31.424 27.4553 30.8771C28.0945 30.3232 28.4141 29.6129 28.4141 28.7464C28.4141 28.1001 28.2543 27.5178 27.9347 26.9993C27.6151 26.4737 27.1605 26.0618 26.571 25.7635C25.9815 25.4581 25.2784 25.3054 24.4616 25.3054H20.1044V31.6974ZM20.1044 22.4609H24.0142C24.696 22.4609 25.3104 22.3366 25.8572 22.0881C26.4041 21.8324 26.8338 21.4737 27.1463 21.0121C27.4659 20.5433 27.6257 19.9893 27.6257 19.3501C27.6257 18.505 27.3274 17.8089 26.7308 17.2621C26.1413 16.7152 25.2642 16.4418 24.0994 16.4418H20.1044V22.4609Z" fill="white"/>
</svg>
